# 3ds Max Wavefront OBJ Exporter v0.97b - (c)2007 guruware
# File Created: 25.03.2020 13:32:14

mtllib ??\??\??\???.mtl

#
# object Box005
#

v  -34.1504 1.8910 -23.7732
v  52.8186 1.8910 -23.7731
v  52.8186 1.8910 -23.9181
v  -34.1504 1.8910 -23.9181
v  -34.1504 42.4765 -23.7732
v  -34.1504 42.4765 -23.9181
v  52.8186 42.4765 -23.9181
v  52.8186 42.4765 -23.7731
# 8 vertices

vn -0.5774 -0.5774 0.5774
vn 0.5774 -0.5774 0.5774
vn 0.5774 -0.5774 -0.5774
vn -0.5774 -0.5774 -0.5774
vn -0.5774 0.5774 0.5774
vn -0.5774 0.5774 -0.5774
vn 0.5774 0.5774 -0.5774
vn 0.5774 0.5774 0.5774
# 8 vertex normals

vt 0.9991 0.0006 0.0000
vt 0.9995 0.2318 0.0000
vt 0.9955 0.2317 0.0000
vt 0.9950 0.0005 0.0000
vt 0.9943 0.6942 0.0000
vt 0.9903 0.6942 0.0000
vt 0.9955 0.4630 0.0000
vt 0.9995 0.4630 0.0000
vt 0.4960 0.2317 0.0000
vt 0.4960 0.4629 0.0000
vt 0.0005 0.4629 0.0000
vt 0.0005 0.2317 0.0000
vt 0.5000 0.4630 0.0000
vt 0.5000 0.2317 0.0000
# 14 texture coords

o Box005
g Box005
usemtl 07___Default
s 2
f 4/4/4 3/3/3 2/2/2 1/1/1 
s 4
f 8/8/8 7/7/7 6/6/6 5/5/5 
s 8
f 2/12/2 8/11/8 5/10/5 1/9/1 
s 16
f 3/3/3 7/7/7 8/8/8 2/2/2 
s 32
f 4/14/4 6/13/6 7/7/7 3/3/3 
s 64
f 1/9/1 5/10/5 6/13/6 4/14/4 
# 6 polygons

#
# object Object001
#

v  -35.7671 79.6164 -24.1261
v  -35.7274 1.8896 -24.0920
v  -33.5994 1.8910 -22.8603
v  -33.6391 79.6178 -22.8943
v  -33.5967 1.8901 -25.3191
v  -33.6363 79.6168 -25.3531
v  54.4202 79.6560 -24.0246
v  52.2894 79.6555 -22.7976
v  52.3290 1.9288 -22.7635
v  54.4598 1.9293 -23.9905
v  52.2921 79.6546 -25.2564
v  52.3317 1.9279 -25.2223
v  54.3703 55.5210 28.5226
v  52.2396 55.5201 29.7499
v  52.2780 0.0000 29.7043
v  54.4087 0.0000 28.5127
v  52.2421 55.5192 27.2911
v  52.1256 0.0000 27.6277
v  -33.4067 55.5210 29.7746
v  -35.5349 55.5201 28.5431
v  -35.4762 0.0000 28.5535
v  -33.3789 0.0000 29.8030
v  -33.4042 55.5192 27.3158
v  -33.7540 0.0000 27.3833
# 24 vertices

vn -0.8323 0.5543 -0.0011
vn -1.0000 -0.0005 -0.0011
vn 0.4990 0.0006 0.8666
vn 0.4150 0.5552 0.7208
vn 0.5010 -0.0001 -0.8655
vn 0.4166 0.5546 -0.7203
vn 0.8318 0.5551 0.0007
vn -0.4171 0.5548 0.7199
vn -0.5008 0.0001 0.8656
vn 1.0000 0.0005 0.0011
vn -0.4155 0.5542 -0.7213
vn -0.4992 -0.0006 -0.8665
vn 0.8317 0.5553 0.0006
vn -0.4170 0.5543 0.7203
vn -0.4739 -0.0011 0.8806
vn 0.9976 0.0007 -0.0699
vn -0.4140 0.5529 -0.7231
vn -0.5971 -0.0036 -0.8021
vn 0.4151 0.5553 0.7206
vn -0.8323 0.5543 -0.0010
vn -0.9996 -0.0011 0.0299
vn 0.5594 0.0007 0.8289
vn 0.4193 0.5529 -0.7201
vn 0.3961 -0.0036 -0.9182
# 24 vertex normals

vt 0.1334 0.9519 0.0000
vt 0.0789 0.0217 -3.1950
vt 0.1083 0.0200 0.0000
vt 0.1628 0.9502 0.0000
vt 0.0745 0.9554 0.0000
vt 0.0200 0.0252 0.0000
vt 0.0494 0.0234 0.0000
vt 0.1039 0.9537 3.1950
vt 0.0907 0.9800 0.0000
vt 0.5370 0.9518 0.0000
vt 0.5075 0.9518 3.1861
vt 0.5080 0.0200 -3.1861
vt 0.5375 0.0200 0.0000
vt 0.4780 0.9518 0.0000
vt 0.4785 0.0200 0.0000
vt 0.5665 0.9518 0.0000
vt 0.5669 0.0200 0.0000
vt 0.4928 0.9773 0.0000
vt 0.2050 0.6857 0.0000
vt 0.1757 0.6833 0.0000
vt 0.2312 0.0200 0.0000
vt 0.2604 0.0224 -1.6516
vt 0.2638 0.6904 0.0000
vt 0.2344 0.6882 1.6516
vt 0.2896 0.0249 0.0000
vt 0.3145 0.0268 0.0000
vt 0.2471 0.7148 0.0000
vt 0.4652 0.6834 0.0000
vt 0.4358 0.6858 0.0000
vt 0.3816 0.0224 -1.6514
vt 0.4107 0.0200 0.0000
vt 0.4064 0.6882 1.6514
vt 0.3567 0.0244 0.0000
vt 0.3770 0.6903 0.0000
vt 0.3274 0.0266 0.0000
vt 0.3936 0.7147 0.0000
# 36 texture coords

o Object001
g Object001
usemtl 02___Default
s 1
f 9/15/9 10/16/10 11/17/11 12/18/12 
s 2
f 12/19/12 11/20/11 13/21/13 14/22/14 
s 4
f 14/22/14 13/21/13 10/16/10 9/15/9 
s 8
f 14/22/14 9/23/9 12/19/12 
s 1
f 15/24/15 16/25/16 17/26/17 18/27/18 
s 2
f 16/25/16 19/28/19 20/29/20 17/26/17 
s 4
f 19/30/19 15/24/15 18/27/18 20/31/20 
s 8
f 19/28/19 16/25/16 15/32/15 
s 1
f 21/33/21 22/34/22 23/35/23 24/36/24 
s 4
f 22/37/22 25/38/25 26/39/26 23/40/23 
s 8
f 25/38/25 21/33/21 24/36/24 26/39/26 
s 2
f 25/38/25 22/37/22 21/41/21 
s 1
f 27/42/27 28/43/28 29/44/29 30/45/30 
s 4
f 28/43/28 31/46/31 32/47/32 29/44/29 
s 8
f 31/46/31 27/48/27 30/49/30 32/47/32 
s 2
f 31/46/31 28/50/28 27/48/27 
# 12 polygons - 4 triangles

#
# object Object002
#

v  -19.3690 0.6272 7.2127
v  -19.3787 19.7536 7.2044
v  22.7156 19.7536 7.2517
v  22.7254 0.6457 7.2600
v  -33.6912 0.6311 21.8000
v  22.7090 0.6514 22.0463
v  22.7017 15.0280 22.0400
v  -33.7201 15.0032 21.9766
v  -19.3601 19.7536 -9.4721
v  -19.3504 0.6208 -9.4638
v  -33.6730 0.6145 -9.4799
v  -33.6803 14.9911 -9.4861
v  36.9137 0.6576 21.9854
v  36.9040 19.7536 21.9770
v  36.9386 19.7536 -9.4167
v  36.9484 0.6455 -9.4084
v  52.1256 0.6688 21.8453
v  52.0829 0.6522 -9.3913
v  52.0755 15.0288 -9.3976
v  52.0408 15.0409 21.9961
# 20 vertices

vn 0.7078 0.0001 -0.7064
vn 0.1816 0.9653 -0.1876
vn 0.5632 0.6675 -0.4871
vn 0.7080 0.0001 -0.7062
vn -0.7113 -0.0101 0.7028
vn 0.7052 0.0007 0.7090
vn 0.5945 0.4743 0.6494
vn -0.6073 0.5093 0.6098
vn 0.4841 0.6707 -0.5620
vn -0.7065 -0.0007 -0.7077
vn -0.6505 0.4693 -0.5971
vn -0.7043 -0.0000 0.7099
vn -0.4907 0.6656 0.5624
vn -0.4892 0.6655 -0.5638
vn -0.7063 -0.0007 -0.7079
vn 0.7145 -0.0031 0.6997
vn 0.7069 0.0001 -0.7073
vn 0.6480 0.4761 -0.5945
vn 0.6439 0.4750 0.5998
# 19 vertex normals

vt 0.9248 0.3994 1.4648
vt 0.9027 0.4852 1.4648
vt 0.7140 0.4364 1.4648
vt 0.7361 0.3508 -1.4637
vt 0.4170 0.2685 -1.4648
vt 0.6698 0.3337 1.4648
vt 0.6532 0.3981 1.4648
vt 0.4003 0.3329 1.4648
vt 0.0005 0.3958 1.4648
vt 0.1943 0.3754 1.4648
vt 0.2677 0.4400 1.4648
vt 0.0080 0.4673 1.4648
vt 0.1901 0.2984 1.4648
vt 0.2134 0.2129 1.4648
vt 0.2774 0.2304 1.4648
vt 0.2598 0.2946 1.4648
vt 0.9995 0.4187 1.4648
vt 0.9774 0.5045 1.4648
vt 0.2213 0.0642 -1.2542
vt 0.1826 0.1437 1.2545
vt 0.0520 0.0800 1.2545
vt 0.0908 0.0005 1.2545
vt 0.2846 0.0951 1.2545
vt 0.4149 0.1578 -1.2545
vt 0.3860 0.2178 1.2545
vt 0.2551 0.1547 1.2545
vt 0.4397 0.2679 1.2545
vt 0.4780 0.1882 1.2545
vt 0.1504 0.2096 1.2545
vt 0.0198 0.1460 1.2545
# 30 texture coords

o Object002
g Object002
usemtl 08___Default
s 1
f 33/51/33 34/52/34 35/53/35 36/54/36 
f 37/55/37 38/56/38 39/57/39 40/58/40 
s 2
f 35/53/35 39/57/39 38/56/38 36/54/36 
s 4
f 35/59/35 34/60/34 40/61/40 39/62/39 
s 1
f 41/63/41 42/64/36 43/65/42 44/66/43 
s 2
f 34/52/34 33/51/33 42/67/36 41/68/41 
f 37/55/37 40/58/40 44/66/43 43/65/42 
s 4
f 40/61/40 34/60/34 41/63/41 44/66/43 
s 1
f 45/69/44 46/70/45 47/71/46 48/72/47 
f 49/73/48 50/74/49 51/75/50 52/76/51 
s 2
f 47/77/46 51/75/50 50/74/49 48/78/47 
s 4
f 47/71/46 46/70/45 52/79/51 51/80/50 
s 2
f 46/70/45 45/69/44 49/73/48 52/76/51 
# 13 polygons

#
# object Object003
#

v  -34.6777 41.0864 36.3015
v  -35.9082 43.2158 36.2993
v  -35.8330 43.1897 -31.7852
v  -34.6025 41.0603 -31.7829
v  -33.4494 43.2169 36.3020
v  -33.3741 43.1907 -31.7825
v  -39.7046 41.0610 -24.1557
v  -39.7071 43.1913 -22.9272
v  -39.7043 43.1904 -25.3860
v  -39.7646 41.0818 30.0777
v  -39.7670 43.2122 31.3061
v  -39.7643 43.2112 28.8473
v  58.3974 43.2335 -25.2757
v  58.3972 41.1041 -24.0452
v  53.2366 41.1251 36.4005
v  53.3119 41.0990 -31.6840
v  54.5401 43.2294 -31.6835
v  54.4649 43.2555 36.4009
v  52.0814 43.2283 -31.6863
v  52.0061 43.2544 36.3981
v  58.3947 43.2345 -22.8169
v  58.3372 41.1249 30.1881
v  58.3374 43.2543 28.9577
v  58.3347 43.2553 31.4165
# 24 vertices

vn -0.0000 -0.8318 0.5551
vn -0.7215 0.4158 0.5537
vn -0.7202 0.4155 -0.5557
vn 0.0010 -0.8323 -0.5544
vn 0.7197 0.4166 0.5553
vn 0.7210 0.4162 -0.5541
vn -0.5543 -0.8323 -0.0003
vn -0.5557 0.4161 0.7198
vn -0.5541 0.4155 -0.7214
vn -0.5543 -0.8323 -0.0002
vn 0.5553 0.4160 -0.7201
vn 0.5551 -0.8318 0.0010
vn -0.0002 -0.8318 0.5550
vn 0.0012 -0.8323 -0.5543
vn 0.7209 0.4163 -0.5541
vn -0.7201 0.4155 -0.5557
vn -0.7214 0.4160 0.5537
vn 0.5537 0.4166 0.7210
# 18 vertex normals

vt 0.3161 0.2639 -0.0999
vt 0.3161 0.2409 -0.0999
vt 0.9546 0.2416 -0.0999
vt 0.9546 0.2646 -0.0999
vt 0.3160 0.3100 -0.0999
vt 0.3161 0.2870 0.0999
vt 0.9546 0.2877 0.0984
vt 0.9546 0.3108 -0.0999
vt 0.2961 0.2985 -0.0999
vt 0.9746 0.2992 -0.0999
vt 0.0200 0.0787 -0.1421
vt 0.0400 0.0672 0.1385
vt 0.0400 0.0902 -0.1421
vt 0.0200 0.1094 -0.1430
vt 0.0400 0.0979 -0.1430
vt 0.0400 0.1209 0.1394
vt 0.0399 0.0210 -0.1421
vt 0.9600 0.0200 -0.1421
vt 0.9600 0.0431 -0.1421
vt 0.0399 0.0441 -0.1421
vt 0.3160 0.2150 -0.1010
vt 0.9545 0.2157 -0.1010
vt 0.9545 0.2387 -0.1010
vt 0.3160 0.2380 -0.1010
vt 0.3161 0.1688 -0.1010
vt 0.9546 0.1695 -0.1010
vt 0.9546 0.1926 0.0995
vt 0.3160 0.1919 0.1010
vt 0.2961 0.1803 -0.1010
vt 0.9746 0.1811 -0.1010
vt 0.9800 0.0776 -0.1421
vt 0.9600 0.0892 -0.1421
vt 0.9600 0.0661 0.1421
vt 0.9800 0.1083 -0.1430
vt 0.9600 0.1199 0.1430
vt 0.9600 0.0968 -0.1430
vt 0.0400 0.1670 -0.1430
vt 0.0400 0.1440 -0.1430
vt 0.9601 0.1429 -0.1430
vt 0.9601 0.1660 -0.1430
# 40 texture coords

o Object003
g Object003
usemtl 03___Default
s 1
f 53/81/52 54/82/53 55/83/54 56/84/55 
s 2
f 54/85/53 57/86/56 58/87/57 55/88/54 
s 4
f 57/86/56 53/81/52 56/84/55 58/87/57 
s 8
f 57/86/56 54/85/53 53/89/52 
f 56/90/55 55/88/54 58/87/57 
s 1
f 59/91/58 60/92/59 61/93/60 
f 62/94/61 63/95/59 64/96/60 
s 2
f 61/97/60 65/98/62 66/99/63 59/100/58 
s 1
f 67/101/64 68/102/65 69/103/66 70/104/56 
s 2
f 70/105/56 69/106/66 71/107/67 72/108/68 
s 4
f 72/108/68 71/107/67 68/102/65 67/101/64 
s 8
f 72/108/68 67/109/64 70/105/56 
f 68/110/65 71/107/67 69/106/66 
s 1
f 66/111/63 65/112/62 73/113/69 
f 74/114/63 75/115/62 76/116/69 
s 4
f 60/92/59 59/100/58 66/99/63 73/113/69 
s 8
f 61/93/60 60/92/59 73/113/69 65/112/62 
s 2
f 63/117/59 62/118/61 74/119/63 76/120/69 
s 4
f 64/96/60 63/95/59 76/116/69 75/115/62 
s 8
f 62/118/61 64/96/60 75/115/62 74/119/63 
# 12 polygons - 8 triangles

#
# object Object004
#

v  -34.5841 42.5463 -22.7403
v  -34.6133 54.8667 -1.9521
v  -34.6119 55.5917 -3.6043
v  -34.5828 43.3173 -24.2193
v  53.2720 42.5849 -22.6414
v  53.2732 43.3559 -24.1204
v  53.2441 55.6303 -3.5055
v  53.2427 54.9053 -1.8533
v  -34.5807 42.5452 -25.6976
v  -34.5746 57.5054 -38.2069
v  -34.5723 56.7332 -39.8608
v  53.2814 57.5440 -38.1081
v  53.2752 42.5838 -25.5988
v  53.2836 56.7718 -39.7620
v  52.1525 55.6298 -3.5068
v  52.1511 54.9048 -1.8545
v  -33.5217 54.8672 -1.9508
v  -33.5203 55.5922 -3.6031
v  52.1816 43.3554 -24.1217
v  -33.4912 43.3178 -24.2180
v  52.1803 42.5844 -22.6426
v  -33.4925 42.5468 -22.7390
v  52.1836 42.5833 -25.6000
v  -33.4891 42.5457 -25.6964
v  52.1898 57.5435 -38.1093
v  -33.4830 57.5059 -38.2057
v  52.1920 56.7714 -39.7632
v  -33.4807 56.7337 -39.8596
# 28 vertices

vn -0.6119 -0.7906 0.0208
vn -0.5524 0.0504 0.8320
vn -0.6175 0.7850 -0.0493
vn -0.5528 -0.0236 -0.8330
vn 0.6126 -0.7900 0.0222
vn 0.5546 -0.0233 -0.8318
vn 0.6168 0.7856 -0.0479
vn 0.5505 0.0509 0.8333
vn -0.5945 -0.7947 -0.1227
vn -0.5642 -0.1283 0.8156
vn -0.5980 0.7889 0.1413
vn -0.5603 0.1437 -0.8157
vn 0.5969 0.7895 0.1425
vn 0.5625 -0.1278 0.8169
vn 0.5955 -0.7941 -0.1214
vn 0.5621 0.1442 -0.8144
vn -0.6175 0.7850 -0.0492
vn -0.5524 0.0503 0.8320
vn -0.5528 -0.0237 -0.8330
vn 0.5546 -0.0234 -0.8318
vn 0.6127 -0.7900 0.0223
vn -0.5980 0.7890 0.1412
vn 0.5969 0.7896 0.1425
vn -0.5604 0.1436 -0.8157
vn 0.5621 0.1440 -0.8144
# 25 vertex normals

vt 0.5942 0.0481 -0.6224
vt 0.0005 0.4000 -0.6224
vt 0.0050 0.3486 -0.6224
vt 0.5951 0.0005 -0.6224
vt 0.6819 0.2406 -0.6220
vt 0.7242 0.2624 -0.6220
vt 0.1369 0.6154 -0.6220
vt 0.0896 0.5948 -0.6220
vt 0.5729 0.4092 -0.5421
vt 0.5950 0.3671 -0.5421
vt 0.9995 0.7672 -0.5421
vt 0.9774 0.8144 -0.5421
vt 0.7557 0.9869 -0.5439
vt 0.3613 0.5768 -0.5439
vt 0.4038 0.5552 -0.5439
vt 0.8032 0.9654 -0.5439
vt 0.0177 0.5163 -0.6220
vt 0.0620 0.4900 -0.6220
vt 0.0779 0.5167 0.6220
vt 0.0336 0.5431 -0.6220
vt 0.0795 0.4743 -0.6224
vt 0.0353 0.5006 -0.6224
vt 0.0193 0.4739 -0.6224
vt 0.0636 0.4475 0.6224
vt 0.6507 0.1394 -0.6220
vt 0.6666 0.1662 -0.3439
vt 0.6683 0.1237 -0.6224
vt 0.6523 0.0970 -0.3465
vt 0.6916 0.1150 -0.6220
vt 0.7076 0.1418 -0.6220
vt 0.7092 0.0994 -0.6224
vt 0.6932 0.0726 -0.6224
vt 0.0736 0.5681 -0.6220
vt 0.6659 0.2138 -0.6220
vt 0.6101 0.0749 -0.6224
vt 0.0164 0.4268 -0.6224
vt 0.4376 0.4358 -0.5439
vt 0.4710 0.4697 -0.5439
vt 0.4488 0.4916 -0.3270
vt 0.4154 0.4577 -0.5439
vt 0.4864 0.4752 -0.5421
vt 0.4530 0.4413 -0.5421
vt 0.4752 0.4194 -0.5421
vt 0.5086 0.4533 -0.3278
vt 0.8705 0.8749 -0.5439
vt 0.8483 0.8968 0.5439
vt 0.8859 0.8804 -0.5421
vt 0.9081 0.8585 0.5421
vt 0.9071 0.9120 -0.5439
vt 0.8849 0.9339 -0.5439
vt 0.9225 0.9175 -0.5421
vt 0.9447 0.8956 -0.5421
vt 0.4262 0.5335 -0.5439
vt 0.8255 0.9437 -0.5439
vt 0.9553 0.8364 -0.5421
vt 0.5508 0.4313 -0.5421
# 56 texture coords

o Object004
g Object004
usemtl 09___Default
s 1
f 77/121/70 78/122/71 79/123/72 80/124/73 
s off
f 81/125/74 82/126/75 83/127/76 84/128/77 
f 85/129/78 80/130/79 86/131/80 87/132/81 
f 88/133/82 82/134/83 89/135/84 90/136/85 
s 2
f 84/137/77 83/138/76 91/139/86 92/140/87 
f 79/141/72 78/142/71 93/143/77 94/144/76 
s 4
f 83/138/76 82/145/75 95/146/88 91/139/86 
f 80/147/73 79/141/72 94/144/76 96/148/89 
s 2
f 82/145/75 81/149/74 97/150/70 95/146/88 
f 77/151/70 80/147/73 96/148/89 98/152/90 
s 4
f 81/125/74 84/128/77 92/153/87 97/154/70 
f 78/122/71 77/121/70 98/155/90 93/156/77 
s 1
f 89/157/84 82/158/83 95/159/79 99/160/78 
f 80/161/79 85/162/78 100/163/84 96/164/83 
s 2
f 82/158/83 88/165/82 101/166/91 95/159/79 
f 86/167/80 80/161/79 96/164/83 102/168/92 
s 1
f 88/165/82 90/169/85 103/170/93 101/166/91 
f 87/171/81 86/167/80 102/168/92 104/172/94 
s 2
f 90/136/85 89/135/84 99/173/78 103/174/93 
f 85/129/78 87/132/81 104/175/94 100/176/84 
s off
f 91/139/86 95/146/88 97/154/70 92/153/87 
f 98/155/90 96/148/89 94/144/76 93/156/77 
f 101/166/91 103/174/93 99/173/78 95/159/79 
f 100/176/84 104/175/94 102/168/92 96/164/83 
# 24 polygons

#
# object Object005
#

v  -39.0519 55.4798 -39.1592
v  -39.0544 57.6101 -37.9307
v  -39.0517 57.6092 -40.3896
v  -39.7163 64.0954 -24.1657
v  -39.7189 66.2257 -22.9373
v  -39.7160 66.2247 -25.3961
v  -39.7347 53.5345 -2.6893
v  -39.7371 55.6648 -1.4608
v  -39.7345 55.6638 -3.9197
v  57.7631 57.6517 -40.2807
v  57.7629 55.5224 -39.0503
v  58.3854 64.1385 -24.0554
v  58.3830 66.2688 -22.8269
v  58.3857 66.2678 -25.2858
v  58.3673 55.7070 -3.8093
v  58.3670 53.5776 -2.5790
v  57.7604 57.6527 -37.8219
v  58.3646 55.7079 -1.3505
# 18 vertices

vn -0.5543 -0.8323 -0.0002
vn -0.5557 0.4161 0.7198
vn -0.5541 0.4155 -0.7214
vn -0.5543 -0.8323 -0.0003
vn 0.5553 0.4161 -0.7201
vn 0.5551 -0.8318 0.0010
vn 0.5537 0.4166 0.7210
vn 0.5553 0.4160 -0.7201
vn 0.5551 -0.8318 0.0009
# 9 vertex normals

vt 0.0028 0.1629 -0.6099
vt 0.0236 0.1509 -0.6099
vt 0.0236 0.1748 0.6070
vt 0.0005 0.0136 -0.9161
vt 0.0212 0.0016 -0.9161
vt 0.0213 0.0255 0.9131
vt 0.0028 0.0906 -0.5503
vt 0.0236 0.0786 -0.5503
vt 0.0236 0.1025 0.5473
vt 0.9662 0.1738 0.6099
vt 0.9663 0.1977 -0.6099
vt 0.0236 0.1988 -0.6099
vt 0.0213 0.0495 -0.9161
vt 0.9765 0.0484 -0.9161
vt 0.9765 0.0723 -0.9161
vt 0.0213 0.0734 -0.9161
vt 0.9764 0.0005 -0.9161
vt 0.9764 0.0244 0.9161
vt 0.9788 0.1014 0.5503
vt 0.9788 0.1254 -0.5503
vt 0.0236 0.1265 -0.5503
vt 0.9870 0.1618 -0.6099
vt 0.9662 0.1498 -0.6099
vt 0.9972 0.0124 -0.9161
vt 0.9995 0.0895 -0.5503
vt 0.9787 0.0775 -0.5503
vt 0.0236 0.2227 -0.6099
vt 0.9663 0.2217 -0.6099
vt 0.0236 0.1504 -0.5503
vt 0.9788 0.1493 -0.5503
# 30 texture coords

o Object005
g Object005
usemtl 13___Default
s 1
f 105/177/95 106/178/96 107/179/97 
f 108/180/98 109/181/96 110/182/97 
f 111/183/95 112/184/96 113/185/97 
s 2
f 107/179/97 114/186/99 115/187/100 105/188/95 
f 108/189/98 116/190/100 117/191/101 109/192/96 
s 4
f 110/182/97 109/181/96 117/193/101 118/194/102 
s 2
f 113/185/97 119/195/102 120/196/103 111/197/95 
s 1
f 115/198/100 114/186/99 121/199/101 
f 116/200/100 118/194/102 117/193/101 
f 120/201/103 119/195/102 122/202/101 
s 4
f 106/203/96 105/188/95 115/187/100 121/204/101 
s 8
f 107/179/97 106/178/96 121/199/101 114/186/99 
f 108/189/98 110/182/97 118/194/102 116/190/100 
s 4
f 112/205/96 111/197/95 120/196/103 122/206/101 
s 8
f 113/185/97 112/184/96 122/202/101 119/195/102 
# 9 polygons - 6 triangles

#
# object DrawCall_0290
#

v  54.9418 57.7517 -40.7175
v  -35.9981 57.7118 -40.8198
v  -35.4466 69.9877 -24.1341
v  54.5150 70.0343 -24.0228
v  -36.0398 56.2843 -2.4137
v  54.9001 56.3243 -2.3113
v  -36.0401 43.9898 31.6284
v  54.8685 43.9898 31.9120
v  -35.9946 50.7856 -40.7824
v  -36.0193 62.8426 -24.0493
v  -36.0369 48.7495 -1.5518
v  54.8717 35.5364 32.9377
v  54.9031 48.7894 -1.4494
v  54.9207 62.8826 -23.9470
v  54.9453 50.8256 -40.6801
v  -36.0682 35.5364 32.8355
# 16 vertices

vn 0.6272 0.3540 -0.6938
vn -0.6297 0.3538 -0.6916
vn -0.5704 0.8209 -0.0290
vn 0.5786 0.8152 -0.0275
vn -0.7389 0.6109 0.2843
vn 0.7360 0.6118 0.2899
vn -0.6070 0.5025 0.6157
vn 0.6045 0.4959 0.6234
vn -0.5508 -0.7437 -0.3789
vn -0.8850 -0.4654 0.0130
vn -0.6854 -0.6512 -0.3258
vn 0.5555 -0.6556 0.5115
vn 0.6869 -0.6503 -0.3246
vn 0.8771 -0.4800 0.0157
vn 0.5524 -0.7432 -0.3775
vn -0.5566 -0.6499 0.5176
# 16 vertex normals

vt 0.0006 0.3596 0.0000
vt 0.2829 0.3598 0.0000
vt 0.2811 0.4240 0.0000
vt 0.0019 0.4239 0.0000
vt 0.2828 0.5038 0.0000
vt 0.0006 0.5036 0.0000
vt 0.2827 0.6161 0.0000
vt 0.0005 0.6165 0.0000
vt 0.2829 0.3383 0.0000
vt 0.3350 0.3754 0.0000
vt 0.3349 0.3977 0.0000
vt 0.4047 0.3314 0.0000
vt 0.4021 0.3548 0.0000
vt 0.7910 0.3299 0.0000
vt 0.8835 0.3974 0.0000
vt 0.8800 0.4207 0.0000
vt 0.7873 0.3561 0.0000
vt 0.9396 0.4578 0.0000
vt 0.9340 0.4793 0.0000
vt 0.9995 0.4352 0.0000
vt 0.9940 0.4560 0.0000
vt 0.0007 0.3381 0.0000
vt 0.5077 0.3163 0.0000
vt 0.5114 0.2900 0.0000
vt 0.0007 0.2741 0.0000
vt 0.2830 0.2742 0.0000
vt 0.0008 0.0773 0.0000
vt 0.2831 0.0775 0.0000
vt 0.2830 0.1919 0.0000
vt 0.0007 0.1917 0.0000
# 30 texture coords

o DrawCall_0290
g DrawCall_0290
usemtl 01___Default
s 1
f 123/207/104 124/208/105 125/209/106 126/210/107 
s 2
f 125/209/106 127/211/108 128/212/109 126/210/107 
f 128/212/109 127/211/108 129/213/110 130/214/111 
s 4
f 131/215/112 132/216/113 125/217/106 124/208/105 
f 132/216/113 133/218/114 127/219/108 125/217/106 
f 134/220/115 135/221/116 128/222/109 130/223/111 
f 135/221/116 136/224/117 126/225/107 128/222/109 
f 136/224/117 137/226/118 123/227/104 126/225/107 
s 2
f 137/228/118 131/215/112 124/208/105 123/207/104 
s 1
f 130/223/111 129/229/110 138/230/119 134/220/115 
s 4
f 133/218/114 138/230/119 129/229/110 127/219/108 
s off
f 137/228/118 136/231/117 132/232/113 131/215/112 
f 134/233/115 138/234/119 133/235/114 135/236/116 
f 135/236/116 133/235/114 132/232/113 136/231/117 
# 14 polygons

